<?xml version="1.0" encoding="utf-8"?>
<!-- Generator: Adobe Illustrator 25.4.1, SVG Export Plug-In . SVG Version: 6.00 Build 0)  -->
<svg version="1.1" id="Layer_1" xmlns="http://www.w3.org/2000/svg" xmlns:xlink="http://www.w3.org/1999/xlink" x="0px" y="0px"
	 viewBox="0 0 93.7 195.5" style="enable-background:new 0 0 93.7 195.5;" xml:space="preserve">
<style type="text/css">
	.st0{fill:#FFFFFF;stroke:#FFFFFF;}
</style>
<path class="st0" d="M17,195.5c0-32.6,0-65,0-97.7c-5.8,0-11.3,0-17,0c0-11,0-21.9,0-32.9c5.6,0,11.2,0,16.9,0c0-0.8,0.1-1.4,0.1-2
	c0-7.4-0.2-14.9,0.1-22.3c0.3-5.1,1-10.4,2.3-15.3c3.5-13,12.4-20.7,25.3-23.5c4.9-1.1,10-1.6,15-1.7c10.8-0.3,21.7-0.1,32.5-0.1
	c0.4,0,0.8,0,1.3,0.1c0,10.9,0,21.7,0,32.8c-0.7,0-1.4,0-2.1,0c-6.9,0.1-13.8-0.1-20.7,0.3c-6.9,0.4-9.5,3.3-9.7,10.3
	c-0.1,5.2-0.1,10.5-0.1,15.7c0,1.9,0,3.7,0,5.8c10.1,0,19.9,0,30,0c-1.2,11-2.4,21.9-3.6,32.9c-8.8,0-17.5,0-26.4,0
	c0,32.7,0,65.2,0,97.8C46.5,195.5,31.9,195.5,17,195.5z"/>
</svg>
