<?xml version="1.0" encoding="utf-8"?>
<!-- Generator: Adobe Illustrator 25.4.1, SVG Export Plug-In . SVG Version: 6.00 Build 0)  -->
<svg version="1.1" id="Layer_1" xmlns="http://www.w3.org/2000/svg" xmlns:xlink="http://www.w3.org/1999/xlink" x="0px" y="0px"
	 viewBox="0 0 280.4 275.2" style="enable-background:new 0 0 280.4 275.2;" xml:space="preserve">
<style type="text/css">
	.st0{fill:#FFFFFF;}
</style>
<path class="st0" d="M0.3,137.5c0-20-0.7-40,0.2-60C2,40.2,31,8.1,67.8,1.6C72.8,0.7,78,0.1,83,0.1c37.6-0.1,75.2-0.2,112.8,0
	c38.9,0.2,72.3,27.1,80.9,65c1.2,5.4,1.8,11.1,1.9,16.7c0.2,37.2,0.2,74.5,0,111.7c-0.2,42-33.9,77.9-75.8,81.1
	c-5.5,0.4-11,0.5-16.5,0.5c-34.1,0-68.2,0.1-102.3,0c-34.7-0.1-65-20.4-77.9-51.8C1.8,212.8,0,202,0,190.7c0-17.7,0-35.5,0-53.2
	C0.1,137.5,0.2,137.5,0.3,137.5z M139.4,26.2C139.4,26.1,139.4,26.1,139.4,26.2c-19.5-0.1-39-0.7-58.5,0
	c-30.8,1.2-54.3,25.4-54.6,56.2c-0.4,36.9-0.4,73.7,0,110.6c0.3,30.9,25,55.8,55.5,56.1c38.4,0.3,76.7,0.3,115.1,0
	c30.4-0.3,55.4-25.7,55.5-56.1c0.1-37,0.1-74,0-111c-0.1-29.3-23.7-54.4-53.1-55.7C179.4,25.5,159.4,26.2,139.4,26.2z"/>
<path class="st0" d="M209.1,137.5c0,37.4-30.7,67.8-68.5,67.9c-37.7,0.1-68.7-30.5-68.8-67.7c-0.1-37.3,30.8-67.8,68.6-67.8
	C178.4,69.8,209.1,100.1,209.1,137.5z M184.4,137.6c0-24-19.6-43.4-43.8-43.4c-24.2,0-44,19.4-44.1,43.3c0,23.8,19.7,43.4,43.9,43.4
	C164.8,180.9,184.4,161.6,184.4,137.6z"/>
<path class="st0" d="M229.5,65.7c-0.3,9-7.7,15.9-16.7,15.6c-9.1-0.3-16-7.5-15.8-16.5c0.2-8.8,7.8-15.9,16.8-15.6
	C222.7,49.5,229.7,56.8,229.5,65.7z"/>
</svg>
