<svg xmlns="http://www.w3.org/2000/svg" width="360" height="134.22" viewBox="0 0 360 134.22">
  <g id="Group_14" data-name="Group 14" transform="translate(-74 -1663.496)">
    <g id="Group_12" data-name="Group 12" transform="translate(74 1736.603)">
      <path id="Path_2" data-name="Path 2" d="M113.622,401.675q0-10.392,0-20.784c0-1.669-.009-1.753-1.68-1.814-2.322-.084-4.65-.009-6.974-.05a4.062,4.062,0,0,1-1.159-.389,4.152,4.152,0,0,1,.5-1.017,30.756,30.756,0,0,1,3.2-3.383,5.1,5.1,0,0,1,2.745-1.169c2.841-.164,5.7-.052,8.545-.112,1.086-.024,1.6.429,1.677,1.474.07.949.206,1.9.21,2.847q.1,19.071.158,38.143c0,.433.012.866,0,1.3a1.231,1.231,0,0,0,1.235,1.371,18.923,18.923,0,0,0,2.076.051c9.439-.041,18.878-.1,28.316-.121,2.335-.007,4.67.115,7,.131.918.006,1.489.234,1.467,1.294q-.068,3.371-.06,6.742c0,1.484-1.065,2.338-1.954,3.231a31.533,31.533,0,0,1-3,2.4c-.926-1.125-.568-2.474-.6-3.732-.089-3.779-.061-3.786-3.968-3.78q-17.536.025-35.073.051c-2.922,0-2.634.282-2.663-2.674-.063-6.669-.019-13.338-.019-20.006Z" transform="translate(41.658 -372.458)" fill="#fff"/>
      <path id="Path_3" data-name="Path 3" d="M277.3,378.088c-1.986,0-3.972.007-5.958-.01-.245,0-.7-.136-.7-.2a1.469,1.469,0,0,1,.236-.922c1.111-1.2,2.225-2.4,3.438-3.49a2.666,2.666,0,0,1,1.647-.5q10.124-.053,20.247-.014a4.576,4.576,0,0,1,1.162.319,3.449,3.449,0,0,1-.4,1.169c-2.753,3.209-5.5,6.428-8.33,9.564-4.571,5.056-9.259,10.006-13.8,15.091-2.864,3.209-2.776,3.936.26,6.885,3.9,3.786,7.856,7.507,11.736,11.311,3.013,2.954,5.956,5.981,8.908,9,1.329,1.358,1.305,1.381.124,2.712-3.315,3.736-3.306,3.726-6.928.152-4.849-4.782-9.735-9.526-14.564-14.328-3.242-3.224-6.429-6.5-9.6-9.793-1.336-1.387-1.309-1.449-.017-2.914,2.34-2.656,4.861-5.168,7.028-7.957,3.766-4.847,8.142-9.13,12.218-13.687a6.931,6.931,0,0,0,.666-.794c.519-.792.3-1.379-.635-1.434-1.812-.11-3.63-.1-5.446-.14-.432-.008-.865,0-1.3,0Z" transform="translate(62.626 -372.461)" fill="#fff"/>
      <path id="Path_4" data-name="Path 4" d="M4.912,379.542q-13.89,0-27.781-.016a10.993,10.993,0,0,1-1.932-.343q.534-.818,1.069-1.637c1.927-2.935,4.529-3.851,8.108-3.764,10.117.248,20.245.049,30.368.021,4.565-.012,9.13-.006,13.695-.058,4.729-.053,9.458-.169,14.187-.256,1.361-.025,1.727.166,1.8,1.594.146,2.676.138,5.362.127,8.044a2.234,2.234,0,0,1-.524,1.4c-1.3,1.387-2.663,2.715-4.037,4.027-.511.489-.963.329-1.055-.382a27.814,27.814,0,0,1-.228-2.825c-.037-1.377.033-2.756-.024-4.131-.06-1.484-.664-2.055-2.034-2.048-5.656.026-11.313.021-16.968.1-4.925.066-9.848.222-14.772.337Z" transform="translate(24.801 -372.389)" fill="#fff"/>
      <path id="Path_5" data-name="Path 5" d="M71.2,379.147H44.734c-.432,0-.865-.01-1.3-.012-.674,0-1.035-.285-.6-.924a38.729,38.729,0,0,1,2.907-3.923,3,3,0,0,1,1.993-.878q27.935-.292,55.869-.481c.345,0,.691.01,1.037.011.805,0,1.32.309,1.32,1.207,0,2.681.064,5.363-.026,8.04a3.179,3.179,0,0,1-.892,1.772c-1.036,1.157-2.171,2.228-3.29,3.308a3.746,3.746,0,0,1-.853.474,3.847,3.847,0,0,1-.271-.895q-.151-2.842-.245-5.688c-.069-2.06-.059-2.081-2.223-2.088-3.89-.014-7.779,0-11.668,0q-7.65,0-15.3,0Z" transform="translate(33.641 -372.462)" fill="#fff"/>
      <path id="Path_6" data-name="Path 6" d="M73.109,401.1c-6.661,0-13.323.011-19.984-.006-2.135-.006-2.163-.037-2.173-2.172q-.034-6.488-.008-12.977c.008-1.927.042-1.969,2.049-1.982,1.546-.009,3.093.105,4.641.164.059,1.429.111,2.857.178,4.286.075,1.634.162,3.269.244,4.9.08,1.594.184,1.821,1.786,1.921,2.069.128,4.149.076,6.223.078,3.791.006,7.584.038,11.374-.02,6.827-.109,13.653-.322,20.48-.4,3.936-.045,3.181-.305,3.507,3.516s-.5,6.979-3.873,9.162c-.544.352-1.041.775-1.559,1.165a13.514,13.514,0,0,1-.329-1.923c-.046-1.469.006-2.941-.01-4.411a1.158,1.158,0,0,0-1.259-1.311c-.692-.006-1.384-.024-2.077-.024q-9.606,0-19.212,0Z" transform="translate(34.727 -371.016)" fill="#fff"/>
      <path id="Path_7" data-name="Path 7" d="M188.058,378.676q-12.714,0-25.43,0c-.777,0-1.556-.018-2.331-.081a3.273,3.273,0,0,1-.838-.312,3.208,3.208,0,0,1,.32-.656c2.367-2.914,4.988-4.713,9.191-4.612,11.493.276,23,.055,34.5-.05,5.344-.049,10.688-.316,16.032-.423,5.147-.1,3.917,0,4.5,4.381.011.083-.034.173-.024.257a8.037,8.037,0,0,1-3.842,8.083c-.683.469-1.521,1.615-1.893,1.465-1.032-.415-.566-1.637-.611-2.544-.06-1.207,0-2.421-.057-3.627-.079-1.72-.232-1.857-2.018-1.888-1.9-.033-3.8-.034-5.707-.035q-10.9-.005-21.8,0Z" transform="translate(48.952 -372.516)" fill="#fff"/>
      <path id="Path_8" data-name="Path 8" d="M81.219,415.7q10.779,0,21.558.006c1.982,0,2.022.034,2.02,2.019,0,2.158-.251,4.329-.088,6.471a3.226,3.226,0,0,1-1.395,3.1c-.888.684-1.767,1.381-2.674,2.037-.637.461-.892.2-.892-.526,0-1.818.007-3.636-.05-5.452-.068-2.141-.268-2.408-2.41-2.438q-7.01-.1-14.023-.026c-4.824.044-9.648.237-14.472.246-5.258.009-10.518-.094-15.775-.2-1.561-.031-1.615-.118-1.622-1.633-.02-4.589-.025-9.177.012-13.765.015-1.744.244-1.939,1.958-1.936,1.122,0,2.244.128,3.366.138.923.009,1.185.508,1.183,1.321-.006,2.579,0,5.158.008,7.737,0,.425.032.849.02,1.274-.032,1.192.483,1.659,1.723,1.649,3.809-.029,7.618.062,11.427.083,3.375.018,6.75,0,10.125,0Z" transform="translate(34.786 -368.442)" fill="#fff"/>
      <path id="Path_9" data-name="Path 9" d="M191.211,400.629c-6.659,0-13.318.009-19.978-.007-1.82,0-1.891-.035-1.933-1.837q-.156-6.547-.183-13.1c-.008-1.717.279-1.966,1.861-2.142,4.079-.455,4.191-.352,4.2,3.7,0,1.9,0,3.806.061,5.706.049,1.471.38,1.81,1.794,1.973a15.612,15.612,0,0,0,1.814.023q19.306-.024,38.612-.052c1.819,0,1.841,0,1.879,1.838.037,1.815.078,3.634,0,5.447a3.213,3.213,0,0,1-.629,1.871c-1.3,1.494-2.719,2.885-4.124,4.284-.192.191-.563.2-.853.3a3.588,3.588,0,0,1-.178-.735c-.046-1.811,0-3.626-.123-5.431s-.191-1.826-1.984-1.829q-10.119-.019-20.237,0Z" transform="translate(50.218 -371.094)" fill="#fff"/>
      <path id="Path_10" data-name="Path 10" d="M192.666,420.384q-10.39,0-20.779,0c-2.5,0-2.536-.023-2.536-2.359q0-6.464.087-12.928c.024-1.658.158-1.73,1.779-1.814,3.976-.2,4.027-.155,3.984,3.875-.021,1.986-.073,3.972-.055,5.957.017,1.874.209,2.088,2.108,2.1,4.589.04,9.177.027,13.766.026q14.545,0,29.091-.011c2.713,0,2.28-.288,2.592,2.357a27.127,27.127,0,0,1-.343,5.917,2.607,2.607,0,0,1-.84,1.252,12.973,12.973,0,0,1-1.741,1.555c-.9.646-1.857,1.2-2.791,1.8-.085-1.07-.173-2.139-.252-3.21-.019-.258,0-.519-.009-.778-.156-3.731-.157-3.737-3.8-3.739Q202.8,420.379,192.666,420.384Z" transform="translate(50.248 -368.492)" fill="#fff"/>
      <path id="Path_11" data-name="Path 11" d="M8.184,408.315q0-10.631,0-21.262c0-.519.029-1.037.025-1.556a.986.986,0,0,1,1.127-1.1c1.554,0,3.109.01,4.663.049,1.093.027.857.895.858,1.528.009,3.717-.012,7.433-.027,11.15-.032,8.518-.086,17.037-.085,25.555a6.623,6.623,0,0,1-2.374,5.665c-1.077.857-2,1.9-3.027,2.828a2.962,2.962,0,0,1-.892.377,3.811,3.811,0,0,1-.248-.934q-.025-9.077-.017-18.152,0-2.075,0-4.149Z" transform="translate(29.124 -370.959)" fill="#fff"/>
      <path id="Path_12" data-name="Path 12" d="M235.351,372.943a13.609,13.609,0,0,0,2.335-.019c3.228-.572,5.575.735,7.655,3.116,2.434,2.787,5.042,5.427,7.652,8.052,2.12,2.132,4.378,4.125,6.526,6.23,1.292,1.266,1.259,1.32-.054,2.616-3.747,3.7-3.156,2.849-5.982.046-4.295-4.257-8.517-8.59-12.709-12.951a5.3,5.3,0,0,0-4.356-1.811c-3.494.173-6.992.238-10.491.324a6.887,6.887,0,0,1-1.784-.17c-.175-.044-.423-.662-.347-.743,1.413-1.509,2.822-3.028,4.35-4.416.365-.331,1.154-.254,1.749-.265C231.712,372.922,233.532,372.941,235.351,372.943Z" transform="translate(57.383 -372.48)" fill="#fff"/>
      <path id="Path_13" data-name="Path 13" d="M233.712,428.89a2.117,2.117,0,0,1-.214-.649c0-.141.172-.288.287-.415q5.229-5.729,10.464-11.452,4.016-4.381,8.061-8.735c.411-.443.9-.82,1.275-1.288.666-.828,1.3-.65,1.962-.035.506.469,1.006.944,1.512,1.414,1.613,1.5,1.624,1.57.068,3.278-3.6,3.946-7.215,7.87-10.795,11.831a10.978,10.978,0,0,1-5.808,3.554,52.569,52.569,0,0,0-6.026,2.15C234.266,428.626,234.043,428.742,233.712,428.89Z" transform="translate(58.656 -368.155)" fill="#fff"/>
    </g>
    <g id="Group_13" data-name="Group 13" transform="translate(162.444 1663.496)">
      <path id="Path_14" data-name="Path 14" d="M-192.776,418.785h-11.15A3.091,3.091,0,0,0-206.878,422a3.091,3.091,0,0,0,2.952,3.213h11.15A3.091,3.091,0,0,0-189.824,422,3.091,3.091,0,0,0-192.776,418.785Z" transform="translate(206.878 -368.804)" fill="#ff7600"/>
      <path id="Path_15" data-name="Path 15" d="M-192.776,411.42h-11.15a3.091,3.091,0,0,0-2.952,3.213,3.091,3.091,0,0,0,2.952,3.213h11.15a3.091,3.091,0,0,0,2.952-3.213A3.091,3.091,0,0,0-192.776,411.42Z" transform="translate(206.878 -369.77)" fill="#ff7600"/>
      <path id="Path_16" data-name="Path 16" d="M-147.8,404.055h-56.125a3.092,3.092,0,0,0-2.952,3.214,3.092,3.092,0,0,0,2.952,3.214H-147.8a3.091,3.091,0,0,0,2.951-3.214A3.091,3.091,0,0,0-147.8,404.055Z" transform="translate(206.878 -370.735)" fill="#ff7600"/>
      <path id="Path_17" data-name="Path 17" d="M-203.926,403.118h11.15a3.091,3.091,0,0,0,2.952-3.213,3.092,3.092,0,0,0-2.952-3.214h-11.15a3.092,3.092,0,0,0-2.952,3.214A3.091,3.091,0,0,0-203.926,403.118Z" transform="translate(206.878 -371.7)" fill="#ff7600"/>
      <path id="Path_18" data-name="Path 18" d="M-203.926,395.753h11.15a3.091,3.091,0,0,0,2.952-3.213h0a3.091,3.091,0,0,0-2.952-3.213h-11.15a3.091,3.091,0,0,0-2.952,3.213h0A3.091,3.091,0,0,0-203.926,395.753Z" transform="translate(206.878 -372.665)" fill="#ff7600"/>
      <path id="Path_19" data-name="Path 19" d="M-153.013,418.785h-11.15A3.091,3.091,0,0,0-167.115,422a3.091,3.091,0,0,0,2.952,3.213h11.15A3.091,3.091,0,0,0-150.062,422,3.091,3.091,0,0,0-153.013,418.785Z" transform="translate(212.09 -368.804)" fill="#ff7600"/>
      <path id="Path_20" data-name="Path 20" d="M-58.511,418.785H-71.436A3.091,3.091,0,0,0-74.387,422a3.091,3.091,0,0,0,2.951,3.213h12.925A3.091,3.091,0,0,0-55.559,422,3.091,3.091,0,0,0-58.511,418.785Z" transform="translate(224.243 -368.804)" fill="#ff7600"/>
      <path id="Path_21" data-name="Path 21" d="M-58.511,411.42H-71.436a3.091,3.091,0,0,0-2.951,3.213,3.091,3.091,0,0,0,2.951,3.213h12.925a3.091,3.091,0,0,0,2.952-3.213A3.091,3.091,0,0,0-58.511,411.42Z" transform="translate(224.243 -369.77)" fill="#ff7600"/>
      <path id="Path_22" data-name="Path 22" d="M-58.511,404.055H-71.436a3.091,3.091,0,0,0-2.951,3.214,3.091,3.091,0,0,0,2.951,3.214h12.925a3.091,3.091,0,0,0,2.952-3.214A3.091,3.091,0,0,0-58.511,404.055Z" transform="translate(224.243 -370.735)" fill="#ff7600"/>
      <path id="Path_23" data-name="Path 23" d="M-58.511,396.69H-71.436a3.092,3.092,0,0,0-2.951,3.214,3.091,3.091,0,0,0,2.951,3.213h12.925a3.091,3.091,0,0,0,2.952-3.213A3.092,3.092,0,0,0-58.511,396.69Z" transform="translate(224.243 -371.7)" fill="#ff7600"/>
      <path id="Path_24" data-name="Path 24" d="M-58.511,389.326H-71.436a3.09,3.09,0,0,0-2.951,3.213h0a3.091,3.091,0,0,0,2.951,3.213h12.925a3.091,3.091,0,0,0,2.952-3.213h0A3.091,3.091,0,0,0-58.511,389.326Z" transform="translate(224.243 -372.665)" fill="#ff7600"/>
      <path id="Path_25" data-name="Path 25" d="M-58.511,381.961H-71.436a3.091,3.091,0,0,0-2.951,3.213,3.091,3.091,0,0,0,2.951,3.214h12.925a3.091,3.091,0,0,0,2.952-3.214A3.091,3.091,0,0,0-58.511,381.961Z" transform="translate(224.243 -373.631)" fill="#ff7600"/>
      <path id="Path_26" data-name="Path 26" d="M-35.717,374.6H-89.495a3.092,3.092,0,0,0-2.952,3.214,3.091,3.091,0,0,0,2.952,3.213h53.778a3.091,3.091,0,0,0,2.952-3.213A3.092,3.092,0,0,0-35.717,374.6Z" transform="translate(221.876 -374.596)" fill="#ff7600"/>
      <path id="Path_27" data-name="Path 27" d="M-153.013,411.42h-11.15a3.091,3.091,0,0,0-2.952,3.213,3.091,3.091,0,0,0,2.952,3.213h11.15a3.091,3.091,0,0,0,2.951-3.213A3.091,3.091,0,0,0-153.013,411.42Z" transform="translate(212.09 -369.77)" fill="#ff7600"/>
      <path id="Path_28" data-name="Path 28" d="M-134.265,418.785h-12.042A3.091,3.091,0,0,0-149.258,422a3.091,3.091,0,0,0,2.951,3.213h12.042A3.091,3.091,0,0,0-131.312,422,3.091,3.091,0,0,0-134.265,418.785Z" transform="translate(214.43 -368.804)" fill="#ff7600"/>
      <path id="Path_29" data-name="Path 29" d="M-134.265,411.42h-12.042a3.091,3.091,0,0,0-2.951,3.213,3.091,3.091,0,0,0,2.951,3.213h12.042a3.091,3.091,0,0,0,2.952-3.213A3.091,3.091,0,0,0-134.265,411.42Z" transform="translate(214.43 -369.77)" fill="#ff7600"/>
      <path id="Path_30" data-name="Path 30" d="M-146.307,403.118h12.042a3.091,3.091,0,0,0,2.952-3.213,3.092,3.092,0,0,0-2.952-3.214h-12.042a3.092,3.092,0,0,0-2.951,3.214A3.091,3.091,0,0,0-146.307,403.118Z" transform="translate(214.43 -371.7)" fill="#ff7600"/>
      <path id="Path_31" data-name="Path 31" d="M-146.307,395.753h12.042a3.091,3.091,0,0,0,2.952-3.213h0a3.091,3.091,0,0,0-2.952-3.213h-12.042a3.09,3.09,0,0,0-2.951,3.213h0A3.091,3.091,0,0,0-146.307,395.753Z" transform="translate(214.43 -372.665)" fill="#ff7600"/>
      <path id="Path_32" data-name="Path 32" d="M-90.579,389.326H-103.31a3.09,3.09,0,0,0-2.951,3.213h0a3.091,3.091,0,0,0,2.951,3.213h12.731a3.091,3.091,0,0,0,2.951-3.213h0A3.09,3.09,0,0,0-90.579,389.326Z" transform="translate(220.066 -372.665)" fill="#ff7600"/>
      <path id="Path_33" data-name="Path 33" d="M-89.268,396.69h-24.043a3.092,3.092,0,0,0-2.951,3.214,3.091,3.091,0,0,0,2.951,3.213h24.043a3.091,3.091,0,0,0,2.951-3.213A3.092,3.092,0,0,0-89.268,396.69Z" transform="translate(218.755 -371.7)" fill="#ff7600"/>
      <path id="Path_34" data-name="Path 34" d="M-89.268,418.785h-24.043A3.091,3.091,0,0,0-116.262,422a3.091,3.091,0,0,0,2.951,3.213h24.043A3.091,3.091,0,0,0-86.317,422,3.091,3.091,0,0,0-89.268,418.785Z" transform="translate(218.755 -368.804)" fill="#ff7600"/>
      <path id="Path_35" data-name="Path 35" d="M-96.555,414.633a3.091,3.091,0,0,0-2.952-3.213h-24.042a3.091,3.091,0,0,0-2.952,3.213,3.091,3.091,0,0,0,2.952,3.213h24.042A3.091,3.091,0,0,0-96.555,414.633Z" transform="translate(217.413 -369.77)" fill="#ff7600"/>
      <path id="Path_36" data-name="Path 36" d="M-146.307,410.483h41.051a3.091,3.091,0,0,0,2.951-3.214,3.091,3.091,0,0,0-2.951-3.214h-41.051a3.091,3.091,0,0,0-2.951,3.214A3.091,3.091,0,0,0-146.307,410.483Z" transform="translate(214.43 -370.735)" fill="#ff7600"/>
      <path id="Path_37" data-name="Path 37" d="M-146.307,381.024h49.783a3.091,3.091,0,0,0,2.952-3.213,3.092,3.092,0,0,0-2.952-3.214h-49.783a3.091,3.091,0,0,0-2.951,3.214A3.091,3.091,0,0,0-146.307,381.024Z" transform="translate(214.43 -374.596)" fill="#ff7600"/>
      <path id="Path_38" data-name="Path 38" d="M-90.579,381.961H-103.31a3.091,3.091,0,0,0-2.951,3.213,3.091,3.091,0,0,0,2.951,3.214h12.731a3.091,3.091,0,0,0,2.951-3.214A3.091,3.091,0,0,0-90.579,381.961Z" transform="translate(220.066 -373.631)" fill="#ff7600"/>
      <path id="Path_39" data-name="Path 39" d="M-146.307,388.389h12.042a3.091,3.091,0,0,0,2.952-3.214,3.091,3.091,0,0,0-2.952-3.213h-12.042a3.091,3.091,0,0,0-2.951,3.213A3.091,3.091,0,0,0-146.307,388.389Z" transform="translate(214.43 -373.631)" fill="#ff7600"/>
      <path id="Path_40" data-name="Path 40" d="M-153.013,396.69h-11.15a3.092,3.092,0,0,0-2.952,3.214,3.091,3.091,0,0,0,2.952,3.213h11.15a3.091,3.091,0,0,0,2.951-3.213A3.092,3.092,0,0,0-153.013,396.69Z" transform="translate(212.09 -371.7)" fill="#ff7600"/>
      <path id="Path_41" data-name="Path 41" d="M-153.013,389.326h-11.15a3.091,3.091,0,0,0-2.952,3.213h0a3.091,3.091,0,0,0,2.952,3.213h11.15a3.091,3.091,0,0,0,2.951-3.213h0A3.09,3.09,0,0,0-153.013,389.326Z" transform="translate(212.09 -372.665)" fill="#ff7600"/>
      <path id="Path_42" data-name="Path 42" d="M-196.244,388.236h11.149a3.091,3.091,0,0,0,2.952-3.213,3.091,3.091,0,0,0-2.952-3.213h-11.149a3.091,3.091,0,0,0-2.952,3.213A3.091,3.091,0,0,0-196.244,388.236Z" transform="translate(207.885 -373.651)" fill="#ff7600"/>
      <path id="Path_43" data-name="Path 43" d="M-188.544,381.024h21.3a3.091,3.091,0,0,0,2.952-3.213,3.092,3.092,0,0,0-2.952-3.214h-21.3a3.092,3.092,0,0,0-2.952,3.214A3.091,3.091,0,0,0-188.544,381.024Z" transform="translate(208.894 -374.596)" fill="#ff7600"/>
      <path id="Path_44" data-name="Path 44" d="M-174.826,385.022a3.091,3.091,0,0,0,2.952,3.213h11.15a3.09,3.09,0,0,0,2.951-3.213,3.09,3.09,0,0,0-2.951-3.213h-11.15A3.091,3.091,0,0,0-174.826,385.022Z" transform="translate(211.079 -373.651)" fill="#ff7600"/>
    </g>
  </g>
</svg>
