<svg xmlns="http://www.w3.org/2000/svg" width="1848.36" height="199.595" viewBox="0 0 1848.36 199.595">
  <g id="Group_15" data-name="Group 15" transform="translate(-23.64 -864.405)">
    <g id="Group_8" data-name="Group 8" transform="translate(696.244 864.405)">
      <path id="Path_2" data-name="Path 2" d="M135.864,466.754q0-33.939-.007-67.882c0-5.453-.03-5.726-5.486-5.925-7.584-.273-15.186-.03-22.778-.163-1.271-.022-2.527-.828-3.786-1.271a13.556,13.556,0,0,1,1.629-3.321c3.369-3.8,6.575-7.835,10.451-11.049a16.642,16.642,0,0,1,8.965-3.82c9.279-.536,18.607-.17,27.909-.366,3.546-.078,5.231,1.4,5.478,4.813.229,3.1.672,6.195.687,9.3q.31,62.287.517,124.575c0,1.415.041,2.83.007,4.245-.067,2.778,1.481,4.207,4.034,4.477a61.829,61.829,0,0,0,6.779.166c30.827-.133,61.654-.321,92.481-.4,7.625-.022,15.253.377,22.877.428,3,.019,4.861.765,4.791,4.226q-.222,11.01-.2,22.02c0,4.847-3.48,7.636-6.383,10.554-2.929,2.944-6.5,5.249-9.789,7.831-3.025-3.676-1.854-8.079-1.954-12.19-.292-12.342-.2-12.364-12.959-12.346q-57.273.083-114.549.166c-9.542,0-8.6.92-8.7-8.733-.207-21.78-.063-43.56-.063-65.341Z" transform="translate(371.279 -371.333)" fill="#fff"/>
      <path id="Path_3" data-name="Path 3" d="M307.918,389.762c-6.487,0-12.974.022-19.46-.033-.8-.007-2.29-.443-2.287-.665a4.8,4.8,0,0,1,.772-3.011c3.628-3.912,7.266-7.843,11.23-11.4a8.708,8.708,0,0,1,5.379-1.629q33.064-.172,66.127-.044a14.948,14.948,0,0,1,3.794,1.042c-.417,1.289-.488,2.874-1.3,3.82-8.991,10.48-17.949,20.993-27.207,31.237-14.928,16.512-30.24,32.681-45.064,49.286-9.353,10.48-9.065,12.855.85,22.486,12.726,12.364,25.659,24.518,38.33,36.941,9.841,9.649,19.453,19.534,29.094,29.379,4.341,4.437,4.263,4.51.406,8.858-10.827,12.2-10.8,12.168-22.626.495-15.836-15.618-31.795-31.111-47.565-46.8-10.587-10.528-21-21.234-31.355-31.983-4.363-4.529-4.274-4.732-.055-9.516,7.643-8.674,15.877-16.878,22.955-25.988,12.3-15.829,26.59-29.818,39.9-44.7a22.617,22.617,0,0,0,2.176-2.593c1.7-2.586.983-4.5-2.072-4.684-5.918-.358-11.854-.336-17.787-.458-1.411-.026-2.826,0-4.237,0Z" transform="translate(802.284 -371.384)" fill="#fff"/>
      <path id="Path_4" data-name="Path 4" d="M72.242,393.259q-45.365,0-90.734-.052c-2.106,0-4.2-.728-6.309-1.119q1.745-2.671,3.491-5.345c6.295-9.586,14.791-12.578,26.479-12.294,33.043.809,66.12.159,99.182.07,14.909-.041,29.818-.018,44.728-.188,15.445-.174,30.89-.551,46.335-.835,4.444-.081,5.641.543,5.892,5.2.477,8.74.451,17.514.414,26.272a7.3,7.3,0,0,1-1.71,4.584c-4.241,4.529-8.7,8.866-13.184,13.151-1.67,1.6-3.144,1.075-3.447-1.249a90.831,90.831,0,0,1-.746-9.228c-.122-4.5.107-9-.078-13.491-.2-4.847-2.168-6.712-6.642-6.69-18.474.085-36.948.07-55.418.314-16.084.214-32.164.724-48.244,1.1Z" transform="translate(24.801 -369.894)" fill="#fff"/>
      <path id="Path_5" data-name="Path 5" d="M135.891,393.237H49.461c-1.411,0-2.826-.033-4.237-.041-2.2-.011-3.38-.931-1.95-3.018a126.5,126.5,0,0,1,9.494-12.811,9.787,9.787,0,0,1,6.509-2.867q91.234-.953,182.468-1.57c1.127-.011,2.257.033,3.387.037,2.63.015,4.311,1.008,4.311,3.942,0,8.755.211,17.517-.085,26.257-.067,1.98-1.5,4.211-2.915,5.789-3.384,3.779-7.089,7.277-10.746,10.805a12.234,12.234,0,0,1-2.785,1.548,12.567,12.567,0,0,1-.887-2.922q-.493-9.281-.8-18.578c-.225-6.727-.192-6.8-7.259-6.819-12.7-.044-25.408.011-38.108.015q-24.985.005-49.966,0Z" transform="translate(206.512 -371.405)" fill="#fff"/>
      <path id="Path_6" data-name="Path 6" d="M123.361,439.93c-21.754,0-43.512.037-65.267-.018-6.974-.019-7.063-.122-7.1-7.093q-.111-21.189-.026-42.382c.026-6.295.137-6.431,6.694-6.472,5.05-.03,10.1.344,15.157.536.192,4.666.362,9.331.58,14,.244,5.338.528,10.676.8,16.017.262,5.2.6,5.947,5.833,6.273,6.756.417,13.55.247,20.325.255,12.383.018,24.769.126,37.147-.067,22.3-.355,44.591-1.053,66.888-1.308,12.855-.148,10.388-1,11.455,11.485S214.2,453.946,203.2,461.075c-1.777,1.149-3.4,2.53-5.09,3.8a44.114,44.114,0,0,1-1.075-6.28c-.151-4.8.018-9.6-.033-14.407-.03-2.63-1.271-4.259-4.111-4.281-2.261-.019-4.522-.078-6.782-.078q-31.374-.011-62.747,0Z" transform="translate(228.831 -341.676)" fill="#fff"/>
      <path id="Path_7" data-name="Path 7" d="M252.863,392.634q-41.525,0-83.054-.011c-2.538,0-5.083-.059-7.613-.266a10.687,10.687,0,0,1-2.737-1.02,10.477,10.477,0,0,1,1.045-2.143c7.732-9.516,16.291-15.393,30.018-15.064,37.535.9,75.115.181,112.676-.163,17.454-.159,34.905-1.031,52.36-1.382,16.812-.34,12.793.007,14.71,14.307.037.27-.111.565-.078.839,1.393,11.451-3.225,20.007-12.549,26.4-2.231,1.533-4.969,5.275-6.184,4.784-3.369-1.356-1.847-5.345-1.995-8.308-.2-3.942,0-7.905-.185-11.847-.259-5.619-.757-6.066-6.59-6.165-6.213-.107-12.427-.111-18.64-.114q-35.6-.017-71.185,0Z" transform="translate(521.209 -372.516)" fill="#fff"/>
      <path id="Path_8" data-name="Path 8" d="M148.832,443.112q35.2,0,70.409.019c6.472.011,6.605.111,6.6,6.594-.007,7.048-.82,14.137-.288,21.134.355,4.644-1.238,7.558-4.555,10.114-2.9,2.235-5.77,4.51-8.733,6.653-2.08,1.507-2.915.654-2.915-1.718,0-5.936.022-11.876-.163-17.805-.222-6.993-.875-7.865-7.872-7.964q-22.9-.327-45.8-.085c-15.755.144-31.51.776-47.265.805-17.174.03-34.351-.307-51.521-.646-5.1-.1-5.275-.384-5.3-5.334-.066-14.987-.081-29.974.041-44.957.048-5.7.8-6.332,6.394-6.324,3.664,0,7.329.417,10.994.451,3.014.03,3.871,1.659,3.864,4.315-.018,8.422.007,16.845.026,25.267,0,1.389.1,2.774.066,4.16-.1,3.894,1.577,5.419,5.626,5.386,12.442-.1,24.88.2,37.321.27,11.023.059,22.046.015,33.069.015Z" transform="translate(230.038 -288.782)" fill="#fff"/>
      <path id="Path_9" data-name="Path 9" d="M241.277,439.755c-21.747,0-43.5.03-65.248-.022-5.944-.011-6.177-.115-6.313-6q-.51-21.383-.6-42.773c-.026-5.608.912-6.42,6.077-7,13.321-1.485,13.686-1.149,13.712,12.091.011,6.214,0,12.431.2,18.636.159,4.8,1.241,5.911,5.859,6.443a51.032,51.032,0,0,0,5.925.074q63.052-.077,126.108-.17c5.94-.007,6.014-.015,6.136,6,.122,5.929.255,11.869.007,17.791a10.5,10.5,0,0,1-2.054,6.11c-4.245,4.88-8.88,9.424-13.469,13.993-.628.624-1.84.669-2.785.979a11.713,11.713,0,0,1-.58-2.4c-.151-5.914-.007-11.843-.4-17.739s-.624-5.962-6.479-5.973q-33.047-.061-66.094-.015Z" transform="translate(547.227 -343.296)" fill="#fff"/>
      <path id="Path_10" data-name="Path 10" d="M245.5,459.287q-33.934,0-67.864-.007c-8.153-.011-8.282-.074-8.282-7.706q0-21.112.284-42.223c.078-5.416.517-5.652,5.811-5.925,12.985-.669,13.151-.506,13.01,12.656-.07,6.487-.24,12.974-.181,19.457.055,6.121.683,6.819,6.886,6.875,14.987.129,29.974.089,44.96.085q47.5-.011,95.011-.037c8.862.007,7.447-.942,8.467,7.7.746,6.317-.443,12.9-1.119,19.324-.155,1.455-1.607,2.907-2.745,4.089a42.333,42.333,0,0,1-5.685,5.079c-2.929,2.109-6.066,3.931-9.117,5.877-.277-3.495-.565-6.985-.824-10.484-.063-.842,0-1.7-.03-2.542-.51-12.187-.513-12.205-12.419-12.213Q278.581,459.269,245.5,459.287Z" transform="translate(547.858 -289.808)" fill="#fff"/>
      <path id="Path_11" data-name="Path 11" d="M8.185,462.51q0-34.72,0-69.441c0-1.7.1-3.387.081-5.083-.018-2.5,1.378-3.587,3.679-3.587,5.076,0,10.155.033,15.231.159,3.568.089,2.8,2.922,2.8,4.991.03,12.139-.041,24.277-.089,36.416-.1,27.82-.281,55.644-.277,83.464,0,7.366-1.692,13.683-7.754,18.5-3.517,2.8-6.535,6.217-9.885,9.235a9.682,9.682,0,0,1-2.915,1.23,12.449,12.449,0,0,1-.809-3.051Q8.172,505.7,8.2,476.06q-.006-6.777,0-13.55Z" transform="translate(113.664 -340.503)" fill="#fff"/>
      <path id="Path_12" data-name="Path 12" d="M261.566,373.289c2.545,0,5.157.373,7.625-.063,10.543-1.869,18.208,2.4,25,10.177,7.95,9.1,16.468,17.724,24.99,26.3,6.923,6.963,14.3,13.472,21.315,20.347,4.219,4.134,4.111,4.311-.177,8.544-12.238,12.08-10.306,9.305-19.538.151-14.026-13.9-27.816-28.056-41.506-42.3-4.019-4.178-8.385-6.206-14.226-5.914-11.411.565-22.837.776-34.262,1.057a22.492,22.492,0,0,1-5.826-.554c-.573-.144-1.382-2.161-1.134-2.427,4.614-4.928,9.217-9.889,14.207-14.422,1.193-1.082,3.768-.831,5.711-.865C249.682,373.223,255.626,373.285,261.566,373.289Z" transform="translate(694.498 -371.779)" fill="#fff"/>
      <path id="Path_13" data-name="Path 13" d="M234.2,481.234a6.92,6.92,0,0,1-.7-2.12c.015-.462.561-.942.938-1.356q17.078-18.712,34.174-37.4,13.116-14.307,26.328-28.529c1.341-1.448,2.933-2.678,4.163-4.208,2.176-2.7,4.245-2.124,6.409-.115,1.651,1.533,3.284,3.084,4.939,4.618,5.268,4.887,5.3,5.127.222,10.705-11.743,12.888-23.564,25.7-35.256,38.64-5.212,5.766-11.167,9.782-18.969,11.607-6.742,1.577-13.136,4.614-19.682,7.022C236.007,480.373,235.279,480.75,234.2,481.234Z" transform="translate(720.674 -282.874)" fill="#fff"/>
    </g>
    <g id="Group_9" data-name="Group 9" transform="translate(23.64 872.088)">
      <path id="Path_14" data-name="Path 14" d="M-160.82,418.785h-36.416c-5.323,0-9.642,4.7-9.642,10.495s4.318,10.495,9.642,10.495h36.416c5.323,0,9.642-4.7,9.642-10.495S-155.5,418.785-160.82,418.785Z" transform="translate(206.878 -255.548)" fill="#ff7600"/>
      <path id="Path_15" data-name="Path 15" d="M-160.82,411.42h-36.416c-5.323,0-9.642,4.7-9.642,10.495s4.318,10.495,9.642,10.495h36.416c5.323,0,9.642-4.7,9.642-10.495S-155.5,411.42-160.82,411.42Z" transform="translate(206.878 -275.39)" fill="#ff7600"/>
      <path id="Path_16" data-name="Path 16" d="M-13.933,404.055h-183.3c-5.323,0-9.642,4.7-9.642,10.495s4.318,10.5,9.642,10.5h183.3c5.323,0,9.638-4.7,9.638-10.5S-8.61,404.055-13.933,404.055Z" transform="translate(206.878 -295.232)" fill="#ff7600"/>
      <path id="Path_17" data-name="Path 17" d="M-197.236,417.683h36.416c5.323,0,9.642-4.7,9.642-10.495s-4.318-10.5-9.642-10.5h-36.416c-5.323,0-9.642,4.7-9.642,10.5S-202.56,417.683-197.236,417.683Z" transform="translate(206.878 -315.074)" fill="#ff7600"/>
      <path id="Path_18" data-name="Path 18" d="M-197.236,410.316h36.416c5.323,0,9.642-4.7,9.642-10.495h0c0-5.8-4.318-10.495-9.642-10.495h-36.416c-5.323,0-9.642,4.7-9.642,10.495h0C-206.878,405.617-202.56,410.316-197.236,410.316Z" transform="translate(206.878 -334.913)" fill="#ff7600"/>
      <path id="Path_19" data-name="Path 19" d="M-121.057,418.785h-36.416c-5.323,0-9.641,4.7-9.641,10.495s4.318,10.495,9.641,10.495h36.416c5.323,0,9.638-4.7,9.638-10.495S-115.734,418.785-121.057,418.785Z" transform="translate(314.002 -255.548)" fill="#ff7600"/>
      <path id="Path_20" data-name="Path 20" d="M-22.537,418.785H-64.749c-5.323,0-9.638,4.7-9.638,10.495s4.315,10.495,9.638,10.495h42.212c5.327,0,9.642-4.7,9.642-10.495S-17.21,418.785-22.537,418.785Z" transform="translate(563.817 -255.548)" fill="#ff7600"/>
      <path id="Path_21" data-name="Path 21" d="M-22.537,411.42H-64.749c-5.323,0-9.638,4.7-9.638,10.495s4.315,10.495,9.638,10.495h42.212c5.327,0,9.642-4.7,9.642-10.495S-17.21,411.42-22.537,411.42Z" transform="translate(563.817 -275.39)" fill="#ff7600"/>
      <path id="Path_22" data-name="Path 22" d="M-22.537,404.055H-64.749c-5.323,0-9.638,4.7-9.638,10.495s4.315,10.5,9.638,10.5h42.212c5.327,0,9.642-4.7,9.642-10.5S-17.21,404.055-22.537,404.055Z" transform="translate(563.817 -295.232)" fill="#ff7600"/>
      <path id="Path_23" data-name="Path 23" d="M-22.537,396.69H-64.749c-5.323,0-9.638,4.7-9.638,10.5s4.315,10.495,9.638,10.495h42.212c5.327,0,9.642-4.7,9.642-10.495S-17.21,396.69-22.537,396.69Z" transform="translate(563.817 -315.074)" fill="#ff7600"/>
      <path id="Path_24" data-name="Path 24" d="M-22.537,389.326H-64.749c-5.323,0-9.638,4.7-9.638,10.495h0c0,5.8,4.315,10.495,9.638,10.495h42.212c5.327,0,9.642-4.7,9.642-10.495h0C-12.9,394.025-17.21,389.326-22.537,389.326Z" transform="translate(563.817 -334.913)" fill="#ff7600"/>
      <path id="Path_25" data-name="Path 25" d="M-22.537,381.961H-64.749c-5.323,0-9.638,4.7-9.638,10.495s4.315,10.5,9.638,10.5h42.212c5.327,0,9.642-4.7,9.642-10.5S-17.21,381.961-22.537,381.961Z" transform="translate(563.817 -354.754)" fill="#ff7600"/>
      <path id="Path_26" data-name="Path 26" d="M92.832,374.6H-82.805c-5.327,0-9.642,4.7-9.642,10.5s4.315,10.495,9.642,10.495H92.832c5.323,0,9.642-4.7,9.642-10.495S98.155,374.6,92.832,374.6Z" transform="translate(515.162 -374.596)" fill="#ff7600"/>
      <path id="Path_27" data-name="Path 27" d="M-121.057,411.42h-36.416c-5.323,0-9.641,4.7-9.641,10.495s4.318,10.495,9.641,10.495h36.416c5.323,0,9.638-4.7,9.638-10.495S-115.734,411.42-121.057,411.42Z" transform="translate(314.002 -275.39)" fill="#ff7600"/>
      <path id="Path_28" data-name="Path 28" d="M-100.29,418.785H-139.62c-5.323,0-9.638,4.7-9.638,10.495s4.315,10.495,9.638,10.495h39.331c5.327,0,9.642-4.7,9.642-10.495S-94.963,418.785-100.29,418.785Z" transform="translate(362.11 -255.548)" fill="#ff7600"/>
      <path id="Path_29" data-name="Path 29" d="M-100.29,411.42H-139.62c-5.323,0-9.638,4.7-9.638,10.495s4.315,10.495,9.638,10.495h39.331c5.327,0,9.642-4.7,9.642-10.495S-94.963,411.42-100.29,411.42Z" transform="translate(362.11 -275.39)" fill="#ff7600"/>
      <path id="Path_30" data-name="Path 30" d="M-139.62,417.683h39.331c5.327,0,9.642-4.7,9.642-10.495s-4.315-10.5-9.642-10.5H-139.62c-5.323,0-9.638,4.7-9.638,10.5S-144.943,417.683-139.62,417.683Z" transform="translate(362.11 -315.074)" fill="#ff7600"/>
      <path id="Path_31" data-name="Path 31" d="M-139.62,410.316h39.331c5.327,0,9.642-4.7,9.642-10.495h0c0-5.8-4.315-10.495-9.642-10.495H-139.62c-5.323,0-9.638,4.7-9.638,10.495h0C-149.258,405.617-144.943,410.316-139.62,410.316Z" transform="translate(362.11 -334.913)" fill="#ff7600"/>
      <path id="Path_32" data-name="Path 32" d="M-55.043,389.326h-41.58c-5.323,0-9.638,4.7-9.638,10.495h0c0,5.8,4.315,10.495,9.638,10.495h41.58c5.323,0,9.638-4.7,9.638-10.495h0C-45.405,394.025-49.72,389.326-55.043,389.326Z" transform="translate(477.946 -334.913)" fill="#ff7600"/>
      <path id="Path_33" data-name="Path 33" d="M-28.1,396.69h-78.525c-5.323,0-9.638,4.7-9.638,10.5s4.315,10.495,9.638,10.495H-28.1c5.323,0,9.638-4.7,9.638-10.495S-22.776,396.69-28.1,396.69Z" transform="translate(451.003 -315.074)" fill="#ff7600"/>
      <path id="Path_34" data-name="Path 34" d="M-28.1,418.785h-78.525c-5.323,0-9.638,4.7-9.638,10.495s4.315,10.495,9.638,10.495H-28.1c5.323,0,9.638-4.7,9.638-10.495S-22.776,418.785-28.1,418.785Z" transform="translate(451.003 -255.548)" fill="#ff7600"/>
      <path id="Path_35" data-name="Path 35" d="M-28.7,421.915c0-5.8-4.315-10.495-9.642-10.495h-78.521c-5.323,0-9.642,4.7-9.642,10.495s4.318,10.495,9.642,10.495h78.521C-33.012,432.41-28.7,427.711-28.7,421.915Z" transform="translate(423.419 -275.39)" fill="#ff7600"/>
      <path id="Path_36" data-name="Path 36" d="M-139.62,425.048H-5.548c5.323,0,9.638-4.7,9.638-10.5s-4.315-10.495-9.638-10.495H-139.62c-5.323,0-9.638,4.7-9.638,10.495S-144.943,425.048-139.62,425.048Z" transform="translate(362.11 -295.232)" fill="#ff7600"/>
      <path id="Path_37" data-name="Path 37" d="M-139.62,395.589H22.97c5.327,0,9.642-4.7,9.642-10.495S28.3,374.6,22.97,374.6H-139.62c-5.323,0-9.638,4.7-9.638,10.5S-144.943,395.589-139.62,395.589Z" transform="translate(362.11 -374.596)" fill="#ff7600"/>
      <path id="Path_38" data-name="Path 38" d="M-55.043,381.961h-41.58c-5.323,0-9.638,4.7-9.638,10.495s4.315,10.5,9.638,10.5h41.58c5.323,0,9.638-4.7,9.638-10.5S-49.72,381.961-55.043,381.961Z" transform="translate(477.946 -354.754)" fill="#ff7600"/>
      <path id="Path_39" data-name="Path 39" d="M-139.62,402.954h39.331c5.327,0,9.642-4.7,9.642-10.5s-4.315-10.495-9.642-10.495H-139.62c-5.323,0-9.638,4.7-9.638,10.495S-144.943,402.954-139.62,402.954Z" transform="translate(362.11 -354.754)" fill="#ff7600"/>
      <path id="Path_40" data-name="Path 40" d="M-121.057,396.69h-36.416c-5.323,0-9.641,4.7-9.641,10.5s4.318,10.495,9.641,10.495h36.416c5.323,0,9.638-4.7,9.638-10.495S-115.734,396.69-121.057,396.69Z" transform="translate(314.002 -315.074)" fill="#ff7600"/>
      <path id="Path_41" data-name="Path 41" d="M-121.057,389.326h-36.416c-5.323,0-9.641,4.7-9.641,10.495h0c0,5.8,4.318,10.495,9.641,10.495h36.416c5.323,0,9.638-4.7,9.638-10.495h0C-111.42,394.025-115.734,389.326-121.057,389.326Z" transform="translate(314.002 -334.913)" fill="#ff7600"/>
      <path id="Path_42" data-name="Path 42" d="M-189.555,402.8h36.412c5.327,0,9.641-4.7,9.641-10.495s-4.315-10.495-9.641-10.495h-36.412c-5.327,0-9.641,4.7-9.641,10.495S-194.881,402.8-189.555,402.8Z" transform="translate(227.574 -355.164)" fill="#ff7600"/>
      <path id="Path_43" data-name="Path 43" d="M-181.854,395.589H-112.3c5.323,0,9.642-4.7,9.642-10.495s-4.318-10.5-9.642-10.5h-69.552c-5.327,0-9.641,4.7-9.641,10.5S-187.181,395.589-181.854,395.589Z" transform="translate(248.318 -374.596)" fill="#ff7600"/>
      <path id="Path_44" data-name="Path 44" d="M-174.826,392.3c0,5.8,4.318,10.495,9.641,10.495h36.416c5.323,0,9.638-4.7,9.638-10.495s-4.315-10.495-9.638-10.495h-36.416C-170.508,381.809-174.826,386.508-174.826,392.3Z" transform="translate(293.228 -355.164)" fill="#ff7600"/>
    </g>
  </g>
</svg>
