<?xml version="1.0" encoding="utf-8"?>
<!-- Generator: Adobe Illustrator 25.4.1, SVG Export Plug-In . SVG Version: 6.00 Build 0)  -->
<svg version="1.1" id="Layer_1" xmlns="http://www.w3.org/2000/svg" xmlns:xlink="http://www.w3.org/1999/xlink" x="0px" y="0px"
	 viewBox="0 0 729 586.3" style="enable-background:new 0 0 729 586.3;" xml:space="preserve">
<style type="text/css">
	.st0{fill:#FFFFFF;}
</style>
<g>
	<path class="st0" d="M535.4,169.3c-0.2,6.7-0.3,13.4-1.1,20c-0.8,7.1-2,14.1-3.6,21c-2.4,10.5-5.9,20.5-10.3,30.3
		c-6.3,13.9-14.3,26.8-23.8,38.7c-9.5,11.9-19.3,23.4-29.4,34.8c-8.4,9.5-17,19-25.3,28.5c-12.5,14.3-24.3,29.2-34.9,45.1
		c-7.5,11.3-14.3,23-20.2,35.2c-2.2,4.5-4.1,9.1-6.1,13.7c-0.5,1-0.9,2.1-1.3,3.1c-2.3,4.7-6,6.9-11.2,6.7c-4.9-0.2-8.3-2.5-10.3-7
		c-2.4-5.6-4.9-11.3-7.5-16.8c-4.8-10.1-10.4-19.7-16.4-29.1c-6.8-10.7-14.3-21-22.2-31c-7.7-9.8-15.7-19.2-24.1-28.5
		c-7.1-7.9-14.4-15.7-21.5-23.5c-8.7-9.6-17.1-19.4-24.9-29.8c-7.5-10-14.4-20.4-20.2-31.5c-3.3-6.4-6.1-13-8.6-19.7
		c-3-8.2-5.3-16.5-7-25.1c-1.8-9.3-2.9-18.6-3.1-28.1c0-1.6-0.1-3.1-0.1-4.7c0-9.4,0.7-18.8,2.2-28.2c1.5-9.6,3.8-18.9,6.8-28.1
		c5.3-15.8,12.6-30.6,22-44.3c6.4-9.3,13.6-17.8,21.7-25.7c10.8-10.4,22.8-19.1,36-26.3c7.2-3.9,14.7-7.1,22.4-9.8
		c10.1-3.6,20.6-5.8,31.2-7.3C353.2,1,362,0.3,370.8,0c6.8-0.2,13.6-0.3,20.4,0.3c8.3,0.7,16.5,2.2,24.5,4.4
		c9.1,2.5,17.7,5.9,26.1,10.1c13.4,6.6,25.5,15,36.6,25C493,52.8,504.9,68,514.3,85.2c6.9,12.7,12.2,26,15.7,40
		c2,7.9,3.4,15.9,4.2,24.1c0.6,5.9,1,11.8,1,17.7C535.2,167.8,535.3,168.6,535.4,169.3z M369.8,78.6c-4.5-0.1-9,0.2-13.4,0.8
		c-9.2,1.3-18,3.9-26.3,8c-9.5,4.7-18,10.9-25.4,18.7c-9.7,10.3-16.6,22.1-20.6,35.6c-2.5,8.2-3.6,16.6-3.6,25.2
		c0.1,13.5,3,26.3,9,38.3c6.7,13.4,16.2,24.4,28.5,32.9c11.7,8.1,24.7,13.1,38.8,15.1c9.2,1.3,18.3,1.3,27.5-0.4
		c7.8-1.4,15.2-3.8,22.3-7.3c15.2-7.5,27.3-18.5,36.4-32.8c7.9-12.6,12.3-26.4,13.4-41.2c0.6-8.5-0.2-16.9-2.1-25.2
		c-3.1-13.6-9.2-25.7-18.2-36.4c-9.3-11.2-20.8-19.5-34.3-25.1C391.5,80.8,380.8,78.8,369.8,78.6z"/>
	<path class="st0" d="M398.6,481.4c0.3-0.5,0.5-1.1,0.9-1.7c4.9-8.4,9.9-16.8,14.8-25.1c5.7-9.6,12-18.8,18.7-27.7
		c1.8-2.5,4.2-3.9,7.3-4.4c7.4-1.3,14.7-2.6,22.1-3.9c6.3-1.1,12.7-2.2,19-3.4c7-1.2,14-2.5,21-3.8c9.3-1.6,18.6-3.2,27.9-4.9
		c9.1-1.6,18.3-3.3,27.4-4.9c9.5-1.7,19-3.3,28.5-5c10.4-1.8,20.8-3.7,31.2-5.5c6.8-1.2,13.6-2.4,20.3-3.6c1.5-0.3,3-0.3,4.5-0.4
		c2.2-0.2,3.8,0.8,4.8,2.7c0.7,1.2,1.3,2.3,1.9,3.6c2.8,6.1,5.5,12.1,8.3,18.2c5.1,11.1,10.1,22.2,15.2,33.3
		c5.8,12.8,11.6,25.6,17.4,38.4c5.4,11.9,10.9,23.8,16.3,35.8c2.9,6.3,5.8,12.7,8.6,19c3.6,7.9,7.2,15.8,10.7,23.7
		c1.1,2.4,2,4.8,2.8,7.3c0.9,2.9,1.1,5.9-0.1,8.8c-1.5,3.9-4.3,6.2-8.2,7.4c-2.2,0.7-4.5,1-6.9,1c-0.4,0-0.9,0-1.3,0
		c-42.3,0-84.6,0-127,0c-3.5,0-6.6-0.8-9.6-2.6c-12.8-7.4-25.6-14.7-38.3-22.1c-16.1-9.3-32.1-18.6-48.2-27.8
		c-15.2-8.7-30.4-17.5-45.6-26.2c-10.8-6.2-21.5-12.5-32.3-18.7c-3.5-2-7-4-10.5-6C399.7,482.5,398.9,482.3,398.6,481.4z"/>
	<path class="st0" d="M486,585.3c-0.4,0.4-0.7,0.7-1,0.9c-0.3,0.1-0.7,0.1-1.1,0.1c-0.7,0-1.5,0-2.2,0c-151.6,0-303.3,0-454.9,0
		c-2.9,0-5.8-0.3-8.7-1c-1.8-0.4-3.4-1.1-4.9-2.1c-2.9-2-4.4-4.8-4.6-8.3c-0.1-2,0.1-4,0.7-6c0.7-2.4,1.6-4.7,2.6-6.9
		c6-13.2,11.9-26.3,17.9-39.5c3.8-8.5,7.7-16.9,11.5-25.3c0.3-0.6,0.6-1.2,0.9-1.8c0.9-1.8,2.2-3,4.2-3.4c0.5-0.1,1-0.2,1.5-0.3
		c9.8-1.7,19.6-3.4,29.4-5.1c7.8-1.4,15.6-2.7,23.4-4.1c8.6-1.5,17.2-3.1,25.9-4.7c7.4-1.3,14.9-2.5,22.3-3.9
		c9.4-1.7,18.7-3.4,28.1-5c10.3-1.8,20.6-3.7,30.9-5.5c6.6-1.2,13.1-2.3,19.7-3.4c8.5-1.5,17.1-3.1,25.6-4.7c1-0.2,2.1-0.4,3.1-0.4
		c2.7-0.2,5.2,0.7,7.5,2c4.8,2.8,9.6,5.6,14.4,8.4c15,8.7,29.9,17.3,44.9,26c18.9,10.9,37.9,21.8,56.8,32.7
		c12.9,7.4,25.8,14.9,38.7,22.3c15.7,9,31.4,18.1,47.1,27.1c5.3,3.1,10.7,6.1,16,9.2C483,583.3,484.4,584.1,486,585.3z"/>
	<path class="st0" d="M212,427.6c-50.4,9-100.7,17.9-151.1,26.8c0.1-0.5,0.1-0.8,0.2-1c13.5-29.7,27-59.4,40.5-89.1
		c0.1-0.2,0.3-0.3,0.4-0.5c0.2,0.1,0.5,0,0.7,0.2c36.4,21,72.7,41.9,109.1,62.9C211.8,427,211.9,427.2,212,427.6z"/>
	<path class="st0" d="M299.2,412.1c-0.6,0.2-1,0.3-1.3,0.4c-4.4,0.7-8.9,1.4-13.3,2.2c-1.3,0.2-2.5,0-3.7-0.7c-1.7-1-3.5-2-5.2-3
		c-10.5-6.1-21-12.1-31.5-18.2c-9.3-5.4-18.7-10.8-28-16.2c-10-5.8-20-11.5-30-17.2c-13.7-7.9-27.5-15.9-41.2-23.8
		c-0.7-0.4-1.5-0.7-1.8-1.7c0.4-0.1,0.7-0.3,1.1-0.4c1-0.1,1.9-0.1,2.9-0.1c25.7,0,51.4,0,77.1,0c0.5,0,1,0,1.6,0
		c2.1,0,3.9,0.8,5.4,2.4c2.2,2.5,4.4,4.9,6.6,7.3c10.4,11.5,20.8,23,31.1,34.5c9.2,10.2,18.4,20.5,27.6,30.8
		C297.5,409.4,298.3,410.6,299.2,412.1z"/>
	<path class="st0" d="M630.6,353.9c-1.7,0.3-3.3,0.7-4.9,1c-9.9,1.8-19.7,3.6-29.6,5.3c-7.4,1.3-14.7,2.5-22.1,3.8
		c-9.3,1.6-18.6,3.3-27.8,5c-8,1.4-15.9,2.8-23.9,4.2c-6.6,1.1-13.1,2.2-19.7,3.4c-8.5,1.5-17.1,3.1-25.6,4.6
		c-1.8,0.3-3.5,0.6-5.3,0.9c-0.2,0-0.4,0-0.7,0c-0.4,0-0.8-0.7-0.5-1c0.3-0.5,0.7-1,1.1-1.4c5.8-6.3,11.5-12.6,17.3-18.8
		c6-6.5,12.1-13,18.2-19.5c1.6-1.7,3.2-3.4,4.8-5.1c1.7-1.8,3.6-2.8,6.1-2.8c2.8,0,5.5-0.1,8.3-0.1c5.2,0,10.3,0,15.5,0
		c8.2,0,16.5-0.2,24.7-0.2c9.6,0,19.2,0.1,28.7,0.2c2.3,0,4.6,0.1,6.9,0.3c7,0.7,13.1,3.5,18.5,7.9c2.6,2.1,4.8,4.5,6.9,7.1
		C628.8,350.1,629.8,351.8,630.6,353.9z"/>
</g>
</svg>
